<svg class="diagram-root" style="background: #f5f6f6" xmlns="http://www.w3.org/2000/svg" xmlns:xlink="http://www.w3.org/1999/xlink"><style>.diagram-root { font-family: "Helvetica Neue", sans-serif; font-size: 12px; } .t { overflow: visible; } .t-bg { y: 40; fill: #fff;   } .th { fill: #005aa0;   } .tht { fill: #fff; font-size: 14px;  } .tf { fill: #323c46; overflow: visible; } .tf.pk { fill: #005aa0; font-weight: bold; } .tf.fk { font-weight: bold; } .ty { fill: #adb1b5; font-weight: normal; text-anchor: end; } .r { fill: transparent; stroke: #c3c3c3; stroke-width: 1; } .l { stroke: 1; } .i { fill: #c2c7ce; stroke: #c2c7ce; } .i.ix { fill: #afb3b6; stroke: #000; } .fa { fill: transparent; overflow: visible; } .fa .bg.hover { fill: #f7f7f7; } .c { cy: 12; r: 4; stroke: #d2d2dc; fill: #d2d2dc; } .hr { fill: transparent; stroke: #323c46; stroke-opacity: 0.035; stroke-width: 13; } .dc { stroke: #fa5a3c; fill: #fa5a3c; } .x { stroke: white; stroke-width: 1; } .hl .th { fill: #1b9bff; } .hl .tht {  } .fhl .bg { fill: #e7f4ff; } .fhls .bg {  } .r.hl { stroke: #1b9bff; } .dim { opacity: 0.25; }</style><g class="drawing-wrapper" transform="translate(-64.25, 72.5) scale(1,1)"><g class="rs"><path d="M 304.77 122 m -1, 0 a 1,1 0 1,0 2,0 a 1,1 0 1,0 -2,0 M 304.77 122 m -0.5, 0 a 0.5,0.5 0 1,0 1,0 a 0.5,0.5 0 1,0 -1,0  M304.77 122 L304.77 122 316.77 122 M310.77 128 L310.77 128 310.77 116 M316.77 122 Q 380.52 122, 444.26 297 T 571.75 472 M 583.75 472 m -1, 0 a 1,1 0 1,0 2,0 a 1,1 0 1,0 -2,0 M 583.75 472 m -0.5, 0 a 0.5,0.5 0 1,0 1,0 a 0.5,0.5 0 1,0 -1,0  M583.75 472 L583.75 472 571.75 472 M 583.75 478 m -1, 0 a 1,1 0 1,0 2,0 a 1,1 0 1,0 -2,0 M 583.75 478 m -0.5, 0 a 0.5,0.5 0 1,0 1,0 a 0.5,0.5 0 1,0 -1,0  M583.75 478 L583.75 478 576.75 472 583.75 466 M 583.75 466 m -1, 0 a 1,1 0 1,0 2,0 a 1,1 0 1,0 -2,0 M 583.75 466 m -0.5, 0 a 0.5,0.5 0 1,0 1,0 a 0.5,0.5 0 1,0 -1,0 " id="h3496878531" class="r"></path><path d="M 602.5 330.75 m -1, 0 a 1,1 0 1,0 2,0 a 1,1 0 1,0 -2,0 M 602.5 330.75 m -0.5, 0 a 0.5,0.5 0 1,0 1,0 a 0.5,0.5 0 1,0 -1,0  M602.5 330.75 L602.5 330.75 590.5 330.75 M596.5 336.75 L596.5 336.75 596.5 324.75 M590.5 330.75 Q 522.07 330.75, 453.64 213.88 T 316.77 97 M 304.77 97 m -1, 0 a 1,1 0 1,0 2,0 a 1,1 0 1,0 -2,0 M 304.77 97 m -0.5, 0 a 0.5,0.5 0 1,0 1,0 a 0.5,0.5 0 1,0 -1,0  M304.77 97 L304.77 97 316.77 97 M310.77 103 L310.77 103 310.77 91" id="h3565988499" class="r"></path><path d="M 552.5 14.5 m -1, 0 a 1,1 0 1,0 2,0 a 1,1 0 1,0 -2,0 M 552.5 14.5 m -0.5, 0 a 0.5,0.5 0 1,0 1,0 a 0.5,0.5 0 1,0 -1,0  M552.5 14.5 L552.5 14.5 540.5 14.5 M 552.5 20.5 m -1, 0 a 1,1 0 1,0 2,0 a 1,1 0 1,0 -2,0 M 552.5 20.5 m -0.5, 0 a 0.5,0.5 0 1,0 1,0 a 0.5,0.5 0 1,0 -1,0  M552.5 20.5 L552.5 20.5 545.5 14.5 552.5 8.5 M 552.5 8.5 m -1, 0 a 1,1 0 1,0 2,0 a 1,1 0 1,0 -2,0 M 552.5 8.5 m -0.5, 0 a 0.5,0.5 0 1,0 1,0 a 0.5,0.5 0 1,0 -1,0  M540.5 14.5 Q 484.57 14.5, 428.64 55.75 T 316.77 97 M 304.77 97 m -1, 0 a 1,1 0 1,0 2,0 a 1,1 0 1,0 -2,0 M 304.77 97 m -0.5, 0 a 0.5,0.5 0 1,0 1,0 a 0.5,0.5 0 1,0 -1,0  M304.77 97 L304.77 97 316.77 97 M310.77 103 L310.77 103 310.77 91" id="h1686967718" class="r"></path><path d="M 780.85 39.5 m -1, 0 a 1,1 0 1,0 2,0 a 1,1 0 1,0 -2,0 M 780.85 39.5 m -0.5, 0 a 0.5,0.5 0 1,0 1,0 a 0.5,0.5 0 1,0 -1,0  M780.85 39.5 L780.85 39.5 792.85 39.5 M 780.85 45.5 m -1, 0 a 1,1 0 1,0 2,0 a 1,1 0 1,0 -2,0 M 780.85 45.5 m -0.5, 0 a 0.5,0.5 0 1,0 1,0 a 0.5,0.5 0 1,0 -1,0  M780.85 45.5 L780.85 45.5 787.85 39.5 780.85 33.5 M 780.85 33.5 m -1, 0 a 1,1 0 1,0 2,0 a 1,1 0 1,0 -2,0 M 780.85 33.5 m -0.5, 0 a 0.5,0.5 0 1,0 1,0 a 0.5,0.5 0 1,0 -1,0  M792.85 39.5 Q 836.64 39.5, 880.43 72 T 968 104.5 M 980 104.5 m -1, 0 a 1,1 0 1,0 2,0 a 1,1 0 1,0 -2,0 M 980 104.5 m -0.5, 0 a 0.5,0.5 0 1,0 1,0 a 0.5,0.5 0 1,0 -1,0  M980 104.5 L980 104.5 968 104.5 M974 110.5 L974 110.5 974 98.5" id="h3228934027" class="r"></path><path d="M 781.65 172 m -1, 0 a 1,1 0 1,0 2,0 a 1,1 0 1,0 -2,0 M 781.65 172 m -0.5, 0 a 0.5,0.5 0 1,0 1,0 a 0.5,0.5 0 1,0 -1,0  M781.65 172 L781.65 172 793.65 172 M 781.65 178 m -1, 0 a 1,1 0 1,0 2,0 a 1,1 0 1,0 -2,0 M 781.65 178 m -0.5, 0 a 0.5,0.5 0 1,0 1,0 a 0.5,0.5 0 1,0 -1,0  M781.65 178 L781.65 178 788.65 172 781.65 166 M 781.65 166 m -1, 0 a 1,1 0 1,0 2,0 a 1,1 0 1,0 -2,0 M 781.65 166 m -0.5, 0 a 0.5,0.5 0 1,0 1,0 a 0.5,0.5 0 1,0 -1,0  M793.65 172 Q 837.24 172, 880.83 138.25 T 968 104.5 M 980 104.5 m -1, 0 a 1,1 0 1,0 2,0 a 1,1 0 1,0 -2,0 M 980 104.5 m -0.5, 0 a 0.5,0.5 0 1,0 1,0 a 0.5,0.5 0 1,0 -1,0  M980 104.5 L980 104.5 968 104.5 M974 110.5 L974 110.5 974 98.5" id="h3552831249" class="r"></path><path d="M 558.75 197 m -1, 0 a 1,1 0 1,0 2,0 a 1,1 0 1,0 -2,0 M 558.75 197 m -0.5, 0 a 0.5,0.5 0 1,0 1,0 a 0.5,0.5 0 1,0 -1,0  M558.75 197 L558.75 197 546.75 197 M552.75 203 L552.75 203 552.75 191 M546.75 197 Q 489.26 197, 431.76 147 T 316.77 97 M 304.77 97 m -1, 0 a 1,1 0 1,0 2,0 a 1,1 0 1,0 -2,0 M 304.77 97 m -0.5, 0 a 0.5,0.5 0 1,0 1,0 a 0.5,0.5 0 1,0 -1,0  M304.77 97 L304.77 97 316.77 97 M310.77 103 L310.77 103 310.77 91" id="h681556543" class="r"></path></g><g class="hrs"></g><g class="ts"><svg width="222.52" height="100" x="980" y="47.5" id="h4180888202" class="t"><rect height="40" width="222.52" class="th"></rect><text x="13" y="25" class="tht">department</text><rect height="60" width="222.52" class="t-bg"></rect><text x="13" y="61" class="tf pk">department_id<tspan x="209.52" class="ty">VARCHAR(15)</tspan></text><path d="M7,14A2,2 0 0,1 5,12A2,2 0 0,1 7,10A2,2 0 0,1 9,12A2,2 0 0,1 7,14M12.65,10C11.83,7.67 9.61,6 7, 6A6, 6 0 0, 0 1, 12A6, 6 0 0, 0 7, 18C9.61, 18 11.83, 16.33 12.65, 14H17V18H21V14H23V10H12.65Z" class="i pk" transform="translate(110.39500000000001, 48) scale(0.65)"></path><text x="13" y="86" class="tf">department_name<tspan x="209.52" class="ty">VARCHAR(20)</tspan></text></svg><svg width="218.52" height="225" x="86.25" y="40" id="h1639608377" class="t"><rect height="40" width="218.52" class="th"></rect><text x="13" y="25" class="tht">employees</text><rect height="185" width="218.52" class="t-bg"></rect><text x="13" y="61" class="tf pk">employee_id<tspan x="205.52" class="ty">INT</tspan></text><path d="M7,14A2,2 0 0,1 5,12A2,2 0 0,1 7,10A2,2 0 0,1 9,12A2,2 0 0,1 7,14M12.65,10C11.83,7.67 9.61,6 7, 6A6, 6 0 0, 0 1, 12A6, 6 0 0, 0 7, 18C9.61, 18 11.83, 16.33 12.65, 14H17V18H21V14H23V10H12.65Z" class="i pk" transform="translate(166.189921875, 48) scale(0.65)"></path><text x="13" y="86" class="tf fk">employee_title_id<tspan x="205.52" class="ty">VARCHAR(15)</tspan></text><text x="13" y="111" class="tf">birth_date<tspan x="205.52" class="ty">date</tspan></text><text x="13" y="136" class="tf">first_name<tspan x="205.52" class="ty">VARCHAR(30)</tspan></text><text x="13" y="161" class="tf">last_name<tspan x="205.52" class="ty">VARCHAR(30)</tspan></text><text x="13" y="186" class="tf">sex<tspan x="205.52" class="ty">VARCHAR(1)</tspan></text><text x="13" y="211" class="tf">hire_date<tspan x="205.52" class="ty">date</tspan></text></svg><svg width="133.38" height="100" x="602.5" y="273.75" id="h2472833127" class="t"><rect height="40" width="133.38" class="th"></rect><text x="13" y="25" class="tht">salaries</text><rect height="60" width="133.38" class="t-bg"></rect><text x="13" y="61" class="tf fk">employee_id<tspan x="120.38" class="ty">INT</tspan></text><text x="13" y="86" class="tf">salary<tspan x="120.38" class="ty">INT</tspan></text></svg><svg width="179.81" height="100" x="583.75" y="415" id="h311790747" class="t"><rect height="40" width="179.81" class="th"></rect><text x="13" y="25" class="tht">titles</text><rect height="60" width="179.81" class="t-bg"></rect><text x="13" y="61" class="tf pk">title_id<tspan x="166.81" class="ty">VARCHAR(15)</tspan></text><path d="M7,14A2,2 0 0,1 5,12A2,2 0 0,1 7,10A2,2 0 0,1 9,12A2,2 0 0,1 7,14M12.65,10C11.83,7.67 9.61,6 7, 6A6, 6 0 0, 0 1, 12A6, 6 0 0, 0 7, 18C9.61, 18 11.83, 16.33 12.65, 14H17V18H21V14H23V10H12.65Z" class="i pk" transform="translate(67.685, 48) scale(0.65)"></path><text x="13" y="86" class="tf">title<tspan x="166.81" class="ty">VARCHAR(20)</tspan></text></svg><svg width="228.35" height="100" x="552.5" y="-42.5" id="h976607301" class="t"><rect height="40" width="228.35" class="th"></rect><text x="13" y="25" class="tht">department_employees_junction</text><rect height="60" width="228.35" class="t-bg"></rect><text x="13" y="61" class="tf fk">employee_id<tspan x="215.35" class="ty">INT</tspan></text><text x="13" y="86" class="tf fk">department_id<tspan x="215.35" class="ty">VARCHAR(15)</tspan></text></svg><svg width="222.9" height="100" x="558.75" y="115" id="h2354967461" class="t"><rect height="40" width="222.9" class="th"></rect><text x="13" y="25" class="tht">department_managers_junction</text><rect height="60" width="222.9" class="t-bg"></rect><text x="13" y="61" class="tf fk">department_id<tspan x="209.9" class="ty">VARCHAR(15)</tspan></text><text x="13" y="86" class="tf fk">employee_id<tspan x="209.9" class="ty">INT</tspan></text></svg></g></g><text class="qdbd-link" x="10" y="20">www.quickdatabasediagrams.com</text></svg>